<svg width="48" height="47" viewBox="0 0 48 47" fill="none" xmlns="http://www.w3.org/2000/svg">
<g clip-path="url(#clip0_0_177)">
<path d="M42.8286 43.4418C42.8286 44.2652 42.4774 45.0132 41.9072 45.5526C41.3385 46.0938 40.5519 46.4271 39.6829 46.4271H8.39526C6.65796 46.4271 5.24988 45.0907 5.24988 43.4418C5.24988 39.6742 6.85791 36.2642 9.45911 33.795C10.8877 32.4395 12.6155 31.3669 14.541 30.6773C15.213 30.4347 15.9092 30.2404 16.6248 30.0962C17.051 30.011 17.4839 29.9426 17.9226 29.8936C18.4803 29.8313 19.048 29.799 19.6233 29.799H28.4552C29.4839 29.799 30.4862 29.9019 31.4534 30.0962C37.9521 31.4048 42.8286 36.8832 42.8286 43.4418Z" fill="#7B5341"/>
<path d="M42.8288 43.4418C42.8288 44.2652 42.4776 45.0132 41.9074 45.5526C41.3387 46.0938 40.5521 46.4271 39.683 46.4271H13.076C11.3383 46.4271 9.93022 45.0907 9.93022 43.4418C9.93022 39.6742 11.5383 36.2641 14.1395 33.795C16.0672 31.9654 18.5391 30.6533 21.3055 30.0962C23.1534 29.725 24.0422 29.799 28.4554 29.799C29.0384 29.799 29.6119 29.8324 30.1762 29.8963C30.6083 29.9453 31.0342 30.012 31.4535 30.0962C32.1801 30.2425 32.8851 30.4403 33.5666 30.6867C38.981 32.6421 42.8288 37.6162 42.8288 43.4418Z" fill="#9C6A53"/>
<path d="M17.9345 19.3069V29.9203L24.0392 38.124L30.1443 29.9203V19.3069H17.9345Z" fill="#E3A76F"/>
<path d="M17.9444 17.0491C17.9444 19.1738 16.1294 20.8963 13.8908 20.8963C11.6518 20.8963 9.83719 19.1738 9.83719 17.0491C9.83719 14.9244 11.6518 13.2018 13.8908 13.2018C16.1294 13.2018 17.9444 14.9244 17.9444 17.0491Z" fill="#E3A76F"/>
<path d="M38.2416 17.0497C38.2416 19.1744 36.4267 20.8969 34.1881 20.8969C31.9494 20.8969 30.1345 19.1744 30.1345 17.0497C30.1345 14.9246 31.9494 13.2024 34.1881 13.2024C36.4267 13.2024 38.2416 14.9246 38.2416 17.0497Z" fill="#E3A76F"/>
<path d="M34.5787 10.4493V20.639C34.5787 25.3441 30.8404 29.2744 25.8918 30.0711C19.3985 31.1197 13.5 26.5721 13.5 20.639V10.4493C13.5 5.15859 18.2193 0.87027 24.0392 0.87027C29.8546 0.87027 34.5787 5.15477 34.5787 10.4493Z" fill="#E3A76F"/>
<path d="M34.5788 10.4501V20.6398C34.5788 25.3449 30.8406 29.2752 25.8919 30.0718C20.9444 29.2756 17.2054 25.3438 17.2054 20.6398V10.4501C17.2054 5.73426 20.9554 1.81401 25.8919 1.01912C30.8288 1.81401 34.5788 5.73426 34.5788 10.4501Z" fill="#F2BB88"/>
<path d="M33.5664 30.6866C32.7033 32.2701 24.9854 42.3448 24.5269 42.9437L22.9141 39.7002L30.1761 29.8962C30.6082 29.9452 31.0341 30.012 31.4534 30.0961C32.18 30.2424 32.8849 30.4402 33.5664 30.6866Z" fill="#FFC14F"/>
<path d="M26.1837 18.8049C25.7797 18.8049 25.4523 19.1156 25.4523 19.499C25.4523 20.2386 24.8184 20.8402 24.0391 20.8402C23.2602 20.8402 22.6263 20.2386 22.6263 19.499C22.6263 19.1156 22.2989 18.8049 21.895 18.8049C21.4907 18.8049 21.1636 19.1156 21.1636 19.499C21.1636 21.0039 22.4534 22.2284 24.0391 22.2284C25.6248 22.2284 26.915 21.0039 26.915 19.499C26.915 19.1156 26.5876 18.8049 26.1837 18.8049Z" fill="#AE583E"/>
<path d="M31.1418 16.9647C31.1418 17.6323 30.5712 18.1739 29.8677 18.1739C29.1642 18.1739 28.5941 17.6323 28.5941 16.9647C28.5941 16.297 29.1642 15.7555 29.8677 15.7555C30.5712 15.7555 31.1418 16.297 31.1418 16.9647Z" fill="#AE583E"/>
<path d="M31.5275 13.7335C29.6019 12.9705 27.8756 13.1415 27.8031 13.1492C27.4017 13.1916 27.1124 13.5346 27.1571 13.9156C27.2014 14.2965 27.5625 14.5711 27.9646 14.5287C27.9785 14.5273 29.384 14.3883 30.9639 15.0143C31.0558 15.0508 31.1514 15.0681 31.2455 15.0681C31.5315 15.0681 31.8032 14.9076 31.9204 14.6413C32.0761 14.2878 31.8999 13.8812 31.5275 13.7335Z" fill="#AE583E"/>
<path d="M19.4847 16.9647C19.4847 17.6323 18.9145 18.1739 18.2106 18.1739C17.5071 18.1739 16.9369 17.6323 16.9369 16.9647C16.9369 16.297 17.5071 15.7555 18.2106 15.7555C18.9145 15.7555 19.4847 16.297 19.4847 16.9647Z" fill="#AE583E"/>
<path d="M20.2755 13.1492C20.2027 13.1416 18.4763 12.9706 16.5512 13.7335C16.1784 13.8812 16.0026 14.2879 16.1582 14.6413C16.2754 14.9079 16.5471 15.0682 16.8331 15.0682C16.9273 15.0682 17.0225 15.0511 17.1148 15.0146C18.6708 14.398 20.0928 14.527 20.1162 14.5294C20.5183 14.5694 20.8772 14.2959 20.9215 13.916C20.9662 13.5347 20.6769 13.1916 20.2755 13.1492Z" fill="#AE583E"/>
<path d="M30.1744 46.427H25.9611C13.6143 29.4753 14.97 31.3668 14.5412 30.6772C15.2132 30.4346 15.9093 30.2403 16.6249 30.0961C17.0512 30.0109 17.4841 29.9424 17.9228 29.8934L17.9345 29.9202L24.0392 38.1242C30.6468 47.0589 29.907 46.0558 30.1744 46.427Z" fill="#FFB52D"/>
<path d="M17.9345 29.9202L17.9228 29.8934C17.4841 29.9424 17.0512 30.0109 16.6249 30.0961C15.9093 30.2403 15.2132 30.4346 14.5412 30.6772C14.9268 31.2976 14.677 30.9344 15.7837 32.454C16.6689 31.8332 17.6331 31.3074 18.6581 30.8927L17.9345 29.9202Z" fill="#F29500"/>
</g>
<defs>
<clipPath id="clip0_0_177">
<rect y="0.87027" width="48" height="45.5568" rx="18.3898" fill="white"/>
</clipPath>
</defs>
</svg>
