<svg width="44" height="52" viewBox="0 0 44 52" fill="none" xmlns="http://www.w3.org/2000/svg">
<g clip-path="url(#clip0_0_198)">
<path d="M39.2977 24.6797C38.5779 23.6381 37.6549 22.807 36.6199 22.2535C36.9001 21.1842 37.0415 20.0737 37.0415 18.9358C37.0415 16.2069 36.1996 13.5656 34.6709 11.4986C33.3841 9.75857 31.6799 8.51334 29.7957 7.91753C29.5532 5.9547 28.7715 4.14412 27.5386 2.72668C26.0546 1.02062 24.0877 0.0810852 22.0001 0.0810852C19.9126 0.0810852 17.9456 1.02062 16.4616 2.72668C15.2287 4.14412 14.4471 5.9547 14.2045 7.91753C12.3203 8.51334 10.6162 9.75857 9.32935 11.4986C7.80062 13.5656 6.95868 16.2069 6.95868 18.9358C6.95868 20.0737 7.10007 21.1842 7.38029 22.2535C6.34533 22.807 5.42229 23.6381 4.70251 24.6797C3.65767 26.1917 3.08228 28.0941 3.08228 30.0366C3.08228 34.759 6.38819 38.601 10.4517 38.601H33.5486C37.6121 38.601 40.918 34.759 40.918 30.0366C40.9179 28.0942 40.3426 26.1917 39.2977 24.6797Z" fill="#00CC76"/>
<path d="M40.9179 30.0367C40.9179 28.0942 40.3425 26.1917 39.2977 24.6798C38.5779 23.6382 37.6549 22.8071 36.6199 22.2536C36.9 21.1843 37.0415 20.0738 37.0415 18.9359C37.0415 16.207 36.1996 13.5657 34.6709 11.4987C33.3841 9.75867 31.6799 8.51344 29.7957 7.91764C29.5532 5.9548 28.7715 4.14422 27.5386 2.72678C26.0546 1.02062 24.0876 0.0810852 22.0001 0.0810852V38.6011H33.5486C37.612 38.6011 40.9179 34.759 40.9179 30.0367Z" fill="#00AA95"/>
<path d="M28.0079 21.7926L26.1856 19.6749L23.2885 23.0418V13.1178H20.7114V17.6402L17.8143 14.2733L15.992 16.391L20.7114 21.8757V28.4433L17.8143 25.0763L15.992 27.194L20.7114 32.6788V49.7188H23.2885V27.2772L28.0079 21.7926Z" fill="#C1674C"/>
<path d="M26.1857 19.6749L23.2886 23.0418V13.1178H22.0001V49.7188H23.2886V27.2772L28.008 21.7926L26.1857 19.6749Z" fill="#8C4A50"/>
<path d="M10.0841 48.2213H33.9163V51.2163H10.0841V48.2213Z" fill="#A5E887"/>
<path d="M22.0001 48.2213H33.9162V51.2163H22.0001V48.2213Z" fill="#00CC76"/>
</g>
<defs>
<clipPath id="clip0_0_198">
<rect width="44" height="51.1351" fill="white" transform="translate(0 0.0810852)"/>
</clipPath>
</defs>
</svg>
