<svg width="37" height="44" viewBox="0 0 37 44" fill="none" xmlns="http://www.w3.org/2000/svg">
<path d="M31.4021 3.17747L30.0606 2.19387L30.5475 1.29294C30.7716 0.878256 31.242 0.753622 31.598 1.01466L31.6501 1.05288C32.0061 1.31392 32.1131 1.86177 31.889 2.27645L31.4021 3.17747Z" fill="url(#paint0_linear_0_235)"/>
<path d="M14.4855 34.8855L12.8182 33.663L24.6503 11.7845L26.3175 13.0069L14.4855 34.8855Z" fill="url(#paint1_linear_0_235)"/>
<path d="M23.0263 14.7896L23.644 17.954L26.3176 13.0069L24.6503 11.7845L23.0263 14.7896Z" fill="url(#paint2_linear_0_235)"/>
<path d="M30.8399 2.4848C25.4018 -1.50232 18.4225 -0.289668 14.1937 4.98602C13.2951 6.10714 13.4882 7.90175 14.6026 8.71883C15.5126 9.38602 16.7106 9.14247 17.3684 8.15162C21.2927 2.24056 27.046 -0.296919 30.8399 2.4848Z" fill="url(#paint3_linear_0_235)"/>
<path d="M30.84 2.48474C34.634 5.26637 35.1575 12.4059 32.2787 19.0834C31.7961 20.2027 32.1256 21.5662 33.0356 22.2334C34.15 23.0505 35.6228 22.4772 36.1021 21.0486C38.3575 14.3261 36.2781 6.47177 30.84 2.48474Z" fill="url(#paint4_linear_0_235)"/>
<path d="M30.8401 2.48474C32.2631 3.52805 31.0219 8.8899 28.0686 15.0437C27.3632 16.5134 27.7645 18.3687 28.988 19.2657L29.4743 19.6222C30.5321 20.3977 31.9405 19.9305 32.475 18.6146C35.1314 12.0745 34.5455 5.20137 30.8401 2.48474Z" fill="url(#paint5_linear_0_235)"/>
<path d="M30.8401 2.48475C27.1348 -0.231956 21.5607 2.12484 17.6466 7.74278C16.8591 8.8732 17.1064 10.5544 18.1642 11.3299L18.6505 11.6864C19.874 12.5834 21.4837 12.2027 22.3165 10.8262C25.8031 5.06361 29.4171 1.44144 30.8401 2.48475Z" fill="url(#paint6_linear_0_235)"/>
<path d="M30.8401 2.48477C29.4721 1.48181 26.0792 4.79055 22.7213 10.1677C21.6767 11.8404 22.0725 14.1955 23.5754 15.2973L24.0631 15.6549C25.566 16.7568 27.5603 16.1541 28.4034 14.3337C31.1139 8.48182 32.2081 3.48773 30.8401 2.48477Z" fill="url(#paint7_linear_0_235)"/>
<path d="M29.6141 24.9315H13.1789C12.627 24.9315 12.0977 24.6762 11.7075 24.2216L4.24763 15.5327C3.665 14.8541 2.72035 14.8541 2.13772 15.5327C1.55509 16.2113 1.55509 17.3116 2.13772 17.9902L10.5629 27.8036C10.8364 28.173 11.2409 28.4071 11.6926 28.4071H29.6498C30.4919 28.4071 31.171 27.5946 31.1408 26.606C31.1121 25.6643 30.4231 24.9315 29.6141 24.9315Z" fill="url(#paint8_linear_0_235)"/>
<path d="M7.98775 35.6963L12.6921 30.2168C13.3405 29.4616 13.3405 28.2373 12.6921 27.4821C12.0438 26.7269 10.9927 26.7269 10.3443 27.4821L5.63987 32.9616C4.99154 33.7167 4.99154 34.941 5.63987 35.6963C6.28827 36.4514 7.33942 36.4514 7.98775 35.6963Z" fill="url(#paint9_linear_0_235)"/>
<path d="M6.81281 31.5953L9.16068 34.33L12.6921 30.2168C13.3404 29.4616 13.3404 28.2373 12.6921 27.4821C12.0437 26.7269 10.9926 26.7269 10.3442 27.4821L6.81281 31.5953Z" fill="url(#paint10_linear_0_235)"/>
<path d="M33.0257 35.6963L28.3213 30.2168C27.673 29.4616 27.673 28.2373 28.3213 27.4821C28.9697 26.7269 30.0208 26.7269 30.6692 27.4821L35.3736 32.9616C36.0219 33.7167 36.0219 34.941 35.3736 35.6963C34.7252 36.4514 33.674 36.4514 33.0257 35.6963Z" fill="url(#paint11_linear_0_235)"/>
<path d="M34.2006 31.5953L31.8527 34.33L28.3213 30.2168C27.673 29.4616 27.673 28.2373 28.3213 27.4821C28.9697 26.7269 30.0208 26.7269 30.6692 27.4821L34.2006 31.5953Z" fill="url(#paint12_linear_0_235)"/>
<path d="M30.7486 30.6124H10.7661C9.84919 30.6124 9.10594 29.7466 9.10594 28.6787C9.10594 27.6108 9.84926 26.7451 10.7661 26.7451H30.7485C31.6654 26.7451 32.4086 27.6108 32.4086 28.6787C32.4087 29.7466 31.6655 30.6124 30.7486 30.6124Z" fill="url(#paint13_linear_0_235)"/>
<path d="M0.133492 19.0208L9.59919 30.046C10.2475 30.8012 11.2987 30.8012 11.9471 30.046C12.5954 29.2909 12.5954 28.0665 11.9471 27.3113L2.48137 16.2861C1.83304 15.531 0.781892 15.531 0.133492 16.2861C-0.514834 17.0413 -0.514834 18.2656 0.133492 19.0208Z" fill="url(#paint14_linear_0_235)"/>
<path d="M36.9997 41.6464V36.1883C36.9997 34.4562 35.7943 33.0522 34.3072 33.0522H29.3622C25.2356 33.0522 21.2968 35.0607 18.4977 38.5925L16.0773 41.6464H36.9997Z" fill="url(#paint15_linear_0_235)"/>
<path d="M0.893291 34.0437C7.07956 32.2989 13.6962 33.0937 19.3071 36.2554L20.1875 36.7516C24.1808 39.0018 28.6757 40.1829 33.2463 40.1829H35.2967C36.2374 40.1829 37 40.9547 37 41.9066C37 42.8586 36.2374 43.6304 35.2967 43.6304H1.35053C0.409829 43.6304 -0.352753 42.8586 -0.352753 41.9066V35.7042C-0.352753 34.9303 0.156709 34.2514 0.893291 34.0437Z" fill="url(#paint16_linear_0_235)"/>
<path d="M35.2967 40.1833H33.2462C28.6756 40.1833 24.1808 39.0022 20.1875 36.7519L19.307 36.2558C16.2206 34.5166 12.8299 33.4945 9.37394 33.2168C7.88694 33.0973 6.61731 34.2937 6.61731 35.8034C6.61731 38.7278 8.95991 41.0985 11.8496 41.0985H36.8007C36.5144 40.5542 35.9486 40.1833 35.2967 40.1833Z" fill="url(#paint17_linear_0_235)"/>
<path d="M-0.352753 41.9066C-0.352753 42.8587 0.409829 43.6304 1.35053 43.6304H35.2968C36.2375 43.6304 37.0001 42.8587 37.0001 41.9066C37.0001 40.9546 36.2375 40.1829 35.2968 40.1829H33.2463C30.4315 40.1829 27.6455 39.7343 24.9875 38.8645H-0.352753V41.9066Z" fill="url(#paint18_linear_0_235)"/>
<defs>
<linearGradient id="paint0_linear_0_235" x1="30.8355" y1="1.75515" x2="31.7959" y2="2.27467" gradientUnits="userSpaceOnUse">
<stop stop-color="#B5DBFF"/>
<stop offset="1" stop-color="#48B2E3"/>
</linearGradient>
<linearGradient id="paint1_linear_0_235" x1="19.1484" y1="23.1708" x2="20.3463" y2="23.8188" gradientUnits="userSpaceOnUse">
<stop stop-color="#B5DBFF"/>
<stop offset="1" stop-color="#48B2E3"/>
</linearGradient>
<linearGradient id="paint2_linear_0_235" x1="24.9808" y1="19.02" x2="24.4273" y2="13.4442" gradientUnits="userSpaceOnUse">
<stop stop-color="#B5DBFF" stop-opacity="0"/>
<stop offset="0.1734" stop-color="#8FC5E9" stop-opacity="0.173"/>
<stop offset="0.4541" stop-color="#56A4C8" stop-opacity="0.454"/>
<stop offset="0.6955" stop-color="#2D8DB1" stop-opacity="0.696"/>
<stop offset="0.8853" stop-color="#147EA2" stop-opacity="0.885"/>
<stop offset="1" stop-color="#0B799D"/>
</linearGradient>
<linearGradient id="paint3_linear_0_235" x1="20.1649" y1="1.2262" x2="21.7032" y2="3.36355" gradientUnits="userSpaceOnUse">
<stop stop-color="#FF637B"/>
<stop offset="1" stop-color="#E63950"/>
</linearGradient>
<linearGradient id="paint4_linear_0_235" x1="33.6087" y1="13.5605" x2="37.9996" y2="15.6056" gradientUnits="userSpaceOnUse">
<stop stop-color="#FF637B"/>
<stop offset="1" stop-color="#E63950"/>
</linearGradient>
<linearGradient id="paint5_linear_0_235" x1="29.8415" y1="10.9247" x2="33.3214" y2="13.6278" gradientUnits="userSpaceOnUse">
<stop stop-color="#EDF5FF"/>
<stop offset="1" stop-color="#D5E8FE"/>
</linearGradient>
<linearGradient id="paint6_linear_0_235" x1="22.5479" y1="4.28927" x2="25.8731" y2="7.95599" gradientUnits="userSpaceOnUse">
<stop stop-color="#EDF5FF"/>
<stop offset="1" stop-color="#D5E8FE"/>
</linearGradient>
<linearGradient id="paint7_linear_0_235" x1="25.943" y1="7.43" x2="28.9549" y2="10.4688" gradientUnits="userSpaceOnUse">
<stop stop-color="#FF637B"/>
<stop offset="1" stop-color="#E63950"/>
</linearGradient>
<linearGradient id="paint8_linear_0_235" x1="16.4213" y1="12.6459" x2="16.4213" y2="28.8995" gradientUnits="userSpaceOnUse">
<stop stop-color="#FFDA2D"/>
<stop offset="1" stop-color="#FDBF00"/>
</linearGradient>
<linearGradient id="paint9_linear_0_235" x1="7.57275" y1="29.7321" x2="10.8552" y2="32.5503" gradientUnits="userSpaceOnUse">
<stop stop-color="#C59B6D"/>
<stop offset="1" stop-color="#A57C52"/>
</linearGradient>
<linearGradient id="paint10_linear_0_235" x1="8.88508" y1="31.9163" x2="10.8348" y2="30.2423" gradientUnits="userSpaceOnUse">
<stop stop-color="#8C6239" stop-opacity="0"/>
<stop offset="0.5198" stop-color="#734A23" stop-opacity="0.52"/>
<stop offset="1" stop-color="#603813"/>
</linearGradient>
<linearGradient id="paint11_linear_0_235" x1="33.4377" y1="29.7321" x2="30.1552" y2="32.5503" gradientUnits="userSpaceOnUse">
<stop stop-color="#C59B6D"/>
<stop offset="1" stop-color="#A57C52"/>
</linearGradient>
<linearGradient id="paint12_linear_0_235" x1="32.1283" y1="31.9163" x2="30.1785" y2="30.2423" gradientUnits="userSpaceOnUse">
<stop stop-color="#8C6239" stop-opacity="0"/>
<stop offset="0.5198" stop-color="#734A23" stop-opacity="0.52"/>
<stop offset="1" stop-color="#603813"/>
</linearGradient>
<linearGradient id="paint13_linear_0_235" x1="20.7573" y1="26.0578" x2="20.7573" y2="30.7547" gradientUnits="userSpaceOnUse">
<stop stop-color="#C59B6D"/>
<stop offset="1" stop-color="#A57C52"/>
</linearGradient>
<linearGradient id="paint14_linear_0_235" x1="7.63599" y1="21.3125" x2="4.35355" y2="24.1306" gradientUnits="userSpaceOnUse">
<stop stop-color="#C59B6D"/>
<stop offset="1" stop-color="#A57C52"/>
</linearGradient>
<linearGradient id="paint15_linear_0_235" x1="25.8301" y1="35.6013" x2="27.6209" y2="41.3963" gradientUnits="userSpaceOnUse">
<stop stop-color="#FFDECF"/>
<stop offset="0.3591" stop-color="#FDC5B2"/>
<stop offset="0.7611" stop-color="#FBAE98"/>
<stop offset="1" stop-color="#FAA68E"/>
</linearGradient>
<linearGradient id="paint16_linear_0_235" x1="4.78193" y1="32.4145" x2="25.7008" y2="43.2228" gradientUnits="userSpaceOnUse">
<stop stop-color="#FFDECF"/>
<stop offset="1" stop-color="#FAA68E"/>
</linearGradient>
<linearGradient id="paint17_linear_0_235" x1="17.8775" y1="34.8033" x2="10.6305" y2="28.4086" gradientUnits="userSpaceOnUse">
<stop stop-color="#FAA68E" stop-opacity="0"/>
<stop offset="1" stop-color="#FAA68E"/>
</linearGradient>
<linearGradient id="paint18_linear_0_235" x1="18.3236" y1="40.7545" x2="18.3236" y2="43.2003" gradientUnits="userSpaceOnUse">
<stop stop-color="#FAA68E" stop-opacity="0"/>
<stop offset="1" stop-color="#D07972"/>
</linearGradient>
</defs>
</svg>
