<svg width="42" height="45" viewBox="0 0 42 45" fill="none" xmlns="http://www.w3.org/2000/svg">
<g clip-path="url(#clip0_0_211)">
<path d="M35.7658 16.1623C35.7658 19.8749 34.4614 23.485 32.099 26.2759C30.4009 28.2986 29.6134 30.9529 29.6134 32.9756V34.2557L27.1525 36.8161H14.8478L12.3869 34.2557V32.9756C12.3869 30.9529 11.624 28.2986 9.95054 26.3526C6.80046 22.6656 5.48796 17.7241 6.49703 12.8082C7.67828 7.04735 12.2638 2.36184 17.8256 1.13285C18.8837 0.902333 19.942 0.800003 21.0002 0.800003C24.3716 0.800003 27.6694 2.0033 30.3026 4.23101C33.7724 7.17537 35.7658 11.528 35.7658 16.1623Z" fill="#FEDB41"/>
<path d="M35.7657 16.1623C35.7657 19.8749 34.4613 23.485 32.0989 26.2759C30.4008 28.2986 29.6133 30.9529 29.6133 32.9756V34.2557L27.1524 36.8161H21.0001V0.800003C24.3716 0.800003 27.6693 2.0033 30.3025 4.23101C33.7723 7.17537 35.7657 11.528 35.7657 16.1623Z" fill="#FCBF29"/>
<path d="M3.69141 18.7228H1.23047C0.550348 18.7228 0 18.1502 0 17.4426C0 16.735 0.550348 16.1624 1.23047 16.1624H3.69141C4.37153 16.1624 4.92188 16.735 4.92188 17.4426C4.92188 18.1502 4.37153 18.7228 3.69141 18.7228Z" fill="#FCBF29"/>
<path d="M2.4608 11.5717L0.72084 9.76145C0.240219 9.26141 0.240219 8.45122 0.72084 7.95117C1.20146 7.45113 1.98018 7.45113 2.4608 7.95117L4.20077 9.76145C4.68139 10.2615 4.68139 11.0717 4.20077 11.5717C3.72015 12.0718 2.94151 12.0718 2.4608 11.5717Z" fill="#FCBF29"/>
<path d="M0.72084 26.9339C0.240219 26.4339 0.240219 25.6237 0.72084 25.1236L2.4608 23.3134C2.94143 22.8133 3.72015 22.8133 4.20077 23.3134C4.68139 23.8134 4.68139 24.6236 4.20077 25.1236L2.4608 26.9339C1.98018 27.434 1.20154 27.434 0.72084 26.9339Z" fill="#FCBF29"/>
<path d="M40.7695 18.7228H38.3085C37.6284 18.7228 37.0781 18.1502 37.0781 17.4426C37.0781 16.735 37.6284 16.1624 38.3085 16.1624H40.7695C41.4496 16.1624 41.9999 16.735 41.9999 17.4426C41.9999 18.1502 41.4496 18.7228 40.7695 18.7228Z" fill="#FEA832"/>
<path d="M37.7989 11.5717C37.3183 11.0717 37.3183 10.2615 37.7989 9.76146L39.5389 7.95117C40.0195 7.45113 40.7982 7.45113 41.2788 7.95117C41.7595 8.45122 41.7595 9.26141 41.2788 9.76146L39.5389 11.5717C39.0582 12.0718 38.2796 12.0718 37.7989 11.5717Z" fill="#FEA832"/>
<path d="M39.5389 26.9341L37.7989 25.1238C37.3183 24.6238 37.3183 23.8136 37.7989 23.3135C38.2795 22.8135 39.0582 22.8135 39.5389 23.3135L41.2788 25.1238C41.7595 25.6239 41.7595 26.4341 41.2788 26.9341C40.7982 27.4341 40.0196 27.4341 39.5389 26.9341Z" fill="#FEA832"/>
<path d="M25.9219 36.8162H16.0781C15.389 36.8162 14.8477 37.3794 14.8477 38.0964C14.8477 41.6297 17.6039 44.4973 21 44.4973C24.3961 44.4973 27.1523 41.6297 27.1523 38.0964C27.1523 37.3794 26.611 36.8162 25.9219 36.8162Z" fill="#57555C"/>
<path d="M22.2305 22.5633V35.5359C22.2305 36.2529 21.6892 36.8161 21 36.8161C20.3109 36.8161 19.7696 36.2529 19.7696 35.5359V22.5633C19.7696 21.8463 20.3109 21.2831 21 21.2831C21.6892 21.2831 22.2305 21.8463 22.2305 22.5633Z" fill="#B35C4B"/>
<path d="M22.2305 22.5633V35.5359C22.2305 36.2529 21.6892 36.8161 21.0001 36.8161V21.2831C21.6892 21.2831 22.2305 21.8463 22.2305 22.5633Z" fill="#8B432D"/>
<path d="M28.3828 13.602H25.9218C23.9039 13.602 22.1321 14.6262 21 16.2136C19.8679 14.6262 18.0961 13.602 16.0781 13.602H13.6172C12.928 13.602 12.3867 14.1652 12.3867 14.8822V17.4425C12.3867 20.9759 15.1429 23.8435 18.539 23.8435H23.4609C26.857 23.8435 29.6133 20.9759 29.6133 17.4425V14.8822C29.6133 14.1652 29.0719 13.602 28.3828 13.602Z" fill="#98D400"/>
<path d="M29.6134 14.8822V17.4425C29.6134 20.9759 26.8571 23.8435 23.461 23.8435H21.0001V16.2136C22.1322 14.6262 23.904 13.602 25.9219 13.602H28.3829C29.072 13.602 29.6134 14.1652 29.6134 14.8822Z" fill="#7FBF00"/>
<path d="M27.1524 38.0964C27.1524 41.6297 24.3962 44.4973 21.0001 44.4973V36.8162H25.9219C26.6111 36.8162 27.1524 37.3794 27.1524 38.0964Z" fill="#3C3A41"/>
<path d="M29.6133 34.2558V35.536C29.6133 37.6612 27.9645 39.3765 25.9218 39.3765H16.0781C14.0354 39.3765 12.3867 37.6612 12.3867 35.536V34.2558H29.6133Z" fill="#CAE8F9"/>
<path d="M29.6134 34.2558V35.536C29.6134 37.6612 27.9646 39.3765 25.9219 39.3765H21.0001V34.2558H29.6134Z" fill="#A4D9F5"/>
</g>
<defs>
<clipPath id="clip0_0_211">
<rect width="42" height="43.6973" fill="white" transform="translate(0 0.800003)"/>
</clipPath>
</defs>
</svg>
