<svg width="40" height="56" viewBox="0 0 40 56" fill="none" xmlns="http://www.w3.org/2000/svg">
<g clip-path="url(#clip0_0_53)">
<path d="M27.0317 14.8732C27.0317 14.8868 27.0322 19.2591 27.0309 19.2728L24.688 17.9605V14.8733C24.688 13.9678 25.213 13.2329 25.8599 13.2329C26.5067 13.2328 27.0317 13.9676 27.0317 14.8732Z" fill="#B25F4B"/>
<path d="M27.0316 13.764C27.0316 13.7777 27.0321 18.15 27.0308 18.1636L25.8621 17.5086V12.1236C26.5082 12.1258 27.0316 12.8596 27.0316 13.764V13.764Z" fill="#8B4A39"/>
<path d="M13.856 54.816C8.38865 50.0327 7.84592 42.581 10.6138 34.5143L5.28568 29.8839C4.67631 29.3533 3.86685 29.7093 3.58724 30.6418C-0.194318 43.2493 5.03193 55.9928 14.063 55.9928V54.8992C13.9896 54.8992 13.9177 54.8707 13.856 54.816V54.816Z" fill="#FE637C"/>
<path d="M32.1544 21.5519L20.4357 14.9903C19.6639 14.56 18.8286 15.3575 18.8286 16.5136V33.995L23.0482 30.3467C23.4621 29.991 23.9958 30.2428 24.1786 30.8541C25.7888 36.2216 25.7794 41.9368 24.2114 46.5879H32.8911V23.0753C32.8911 22.4049 32.5997 21.8013 32.1544 21.5519V21.5519Z" fill="#E0F4FE"/>
<path d="M32.1543 21.5516C26.1928 18.2134 27.4017 18.8903 25.8622 18.028V46.5877H32.8911V23.075C32.8911 22.4046 32.5997 21.801 32.1543 21.5516V21.5516Z" fill="#BCDCFE"/>
<path d="M36.4848 49.3219C35.8387 49.3219 35.313 48.5859 35.313 47.6815C35.313 46.776 34.788 46.0411 34.1411 46.0411H24.3872C22.6218 51.8236 18.7489 55.4448 14.0653 55.4461V55.9C14.3455 56.0383 12.9229 55.993 36.4848 55.993C37.1317 55.993 37.6567 55.2581 37.6567 54.3526V50.9624C37.6567 50.0568 37.1317 49.3219 36.4848 49.3219V49.3219Z" fill="#BDBDBD"/>
<path d="M36.4848 49.3219C35.8387 49.3219 35.3129 48.5859 35.3129 47.6815C35.3129 46.776 34.7879 46.0411 34.1411 46.0411H25.8622V55.9929H36.4848C37.1317 55.9929 37.6567 55.258 37.6567 54.3525V50.9623C37.6567 50.0568 37.1317 49.3219 36.4848 49.3219V49.3219Z" fill="#9B9B9B"/>
<path d="M24.5388 30.6418C24.2581 29.7082 23.4497 29.3556 22.8427 29.8818L17.5052 34.4958C20.3061 42.6434 19.7037 50.0508 14.27 54.8161C14.2083 54.8708 14.1364 54.8992 14.063 54.8992V55.9929C23.1025 55.9929 28.3172 43.2386 24.5388 30.6418Z" fill="#E43852"/>
<path d="M13.1757 26.9249C12.9366 27.3132 7.33739 36.5247 8.31864 45.604C8.7663 49.7482 10.4897 53.1596 13.4413 55.743C13.6315 55.9098 13.8472 55.9932 14.0628 55.9932L14.9218 54.4371V26.88L14.0651 26.3559C13.7373 26.355 13.4096 26.5448 13.1757 26.9249V26.9249Z" fill="#FE8598"/>
<path d="M14.9505 26.9248C14.7286 26.565 14.4051 26.3573 14.0653 26.3562V55.9931C14.922 55.9887 19.1012 52.1305 19.8075 45.6038C20.788 36.5246 15.1895 27.313 14.9505 26.9248V26.9248Z" fill="#FE637C"/>
<path d="M25.4913 16.4292C21.0366 14.3505 20.5831 9.37473 23.0936 3.91823C23.9967 1.95527 24.987 0.545867 25.0288 0.486804C25.4873 -0.162337 26.2368 -0.161899 26.6952 0.486804C26.7369 0.545867 27.7271 1.95538 28.6303 3.91823C31.1421 9.37768 30.6852 14.3515 26.2326 16.4292C25.9921 16.5414 25.7319 16.5415 25.4913 16.4292Z" fill="#FCD729"/>
<path d="M28.6301 3.91847C27.727 1.95541 26.7372 0.545781 26.6958 0.486719C26.4754 0.175 26.1754 0 25.8622 0V16.5136C26.7748 16.5136 32.9799 13.369 28.6301 3.91847V3.91847Z" fill="#FEA922"/>
</g>
<defs>
<clipPath id="clip0_0_53">
<rect width="40" height="56" fill="white"/>
</clipPath>
</defs>
</svg>
