<svg width="39" height="52" viewBox="0 0 39 52" fill="none" xmlns="http://www.w3.org/2000/svg">
<g clip-path="url(#clip0_0_91)">
<path d="M31.1434 52.0001H7.1977L6.86787 51.2084C4.58094 45.7191 3.28538 35.8398 3.04943 28.9835L2.99402 27.3738H35.3469L35.2915 28.9835C35.0557 35.8395 33.7603 45.7187 31.4733 51.2083L31.1434 52.0001Z" fill="#F49753"/>
<path d="M19.2092 27.3737V51.9999H31.1434L31.4733 51.2082C33.7603 45.7186 35.0558 35.8394 35.2916 28.9835L35.347 27.3737H19.2092Z" fill="#D36E34"/>
<path d="M1.04721 22.7142H37.3708V30.452H1.04721V22.7142Z" fill="#E98034"/>
<path d="M19.1706 22.7142H37.371V30.452H19.1706V22.7142Z" fill="#AE583E"/>
<path d="M23.8267 38.1479H20.3637V33.5305H18.055V38.1479H14.5919V41.2261H18.055V45.8436H20.3637V41.2261H23.8267V38.1479Z" fill="#FCF7E2"/>
<path d="M23.8266 38.1479H20.3635V33.5305H19.2092V45.8436H20.3635V41.2261H23.8266V38.1479Z" fill="#F4D853"/>
<path d="M30.639 22.7565H20.5339L30.9397 1.61742L36.1057 5.63826L30.639 22.7565Z" fill="#FFD9A6"/>
<path d="M27.6974 2.65308L28.861 -0.00654642L38.2712 7.31251L37.1076 9.97214L27.6974 2.65308Z" fill="#FAC28F"/>
<path d="M21.5178 11.9862H16.3234C13.2751 11.9862 11.1287 15.5464 11.1287 20.6025L11.1288 22.7566H16.3232C19.3715 22.7566 21.5178 19.1961 21.5179 14.1403L21.5178 11.9862Z" fill="#73CA7A"/>
<path d="M0.739579 11.9862H5.93401C8.98226 11.9862 11.1287 15.5464 11.1287 20.6025L11.1286 22.7566H5.93416C2.88598 22.7566 0.739579 19.1961 0.739502 14.1403L0.739579 11.9862Z" fill="#B6DC45"/>
</g>
<defs>
<clipPath id="clip0_0_91">
<rect width="39" height="52" fill="white"/>
</clipPath>
</defs>
</svg>
