<svg width="40" height="40" viewBox="0 0 44 52" fill="none" xmlns="http://www.w3.org/2000/svg">
<path d="M41.1641 42.25V50.4766C41.1641 51.3175 40.5866 52 39.875 52C39.1634 52 38.5859 51.3175 38.5859 50.4766V42.25C38.5859 41.4091 39.1634 40.7266 39.875 40.7266C40.5866 40.7266 41.1641 41.4091 41.1641 42.25Z" fill="#FF7038"/>
<path d="M41.1641 42.25V50.4766C41.1641 51.3175 40.5866 52 39.875 52V40.7266C40.5866 40.7266 41.1641 41.4091 41.1641 42.25Z" fill="#CEAD29"/>
<path d="M44 30.875V42.25C44 43.0909 43.4225 43.7734 42.7109 43.7734H37.0391C36.3275 43.7734 35.75 43.0909 35.75 42.25V30.875C35.75 29.5933 36.1926 28.3867 36.9952 27.4767C38.614 25.6434 41.1347 25.642 42.7548 27.4767C43.5574 28.3867 44 29.5933 44 30.875Z" fill="#96D750"/>
<path d="M44 30.875V42.25C44 43.0909 43.4225 43.7734 42.7109 43.7734H39.875V26.1016C42.1088 26.1016 44 28.2347 44 30.875Z" fill="#80C03B"/>
<path d="M42.7109 48.9531H30.9375C30.2256 48.9531 29.6484 49.6352 29.6484 50.4766C29.6484 51.3179 30.2256 52 30.9375 52H42.7109C43.4228 52 44 51.3179 44 50.4766C44 49.6352 43.4228 48.9531 42.7109 48.9531Z" fill="#05303D"/>
<path d="M32.9141 1.52344V52H1.28906C0.5775 52 0 51.3175 0 50.4766V1.52344C0 0.6825 0.5775 0 1.28906 0H31.625C32.3366 0 32.9141 0.6825 32.9141 1.52344Z" fill="#0A789B"/>
<path d="M32.9141 1.52344V52H16.5V0H31.625C32.3366 0 32.9141 0.6825 32.9141 1.52344Z" fill="#08475E"/>
<path d="M13.75 6.60156H6.875C6.16309 6.60156 5.58594 7.28366 5.58594 8.125V14.625C5.58594 15.4663 6.16309 16.1484 6.875 16.1484H13.75C14.4619 16.1484 15.0391 15.4663 15.0391 14.625V8.125C15.0391 7.28366 14.4619 6.60156 13.75 6.60156Z" fill="#E0EAEF"/>
<path d="M26.125 6.60156H19.25C18.5381 6.60156 17.9609 7.28366 17.9609 8.125V14.625C17.9609 15.4663 18.5381 16.1484 19.25 16.1484H26.125C26.8369 16.1484 27.4141 15.4663 27.4141 14.625V8.125C27.4141 7.28366 26.8369 6.60156 26.125 6.60156Z" fill="#CCE0E5"/>
<path d="M26.125 19.6016H19.25C18.5381 19.6016 17.9609 20.2837 17.9609 21.125V27.625C17.9609 28.4663 18.5381 29.1484 19.25 29.1484H26.125C26.8369 29.1484 27.4141 28.4663 27.4141 27.625V21.125C27.4141 20.2837 26.8369 19.6016 26.125 19.6016Z" fill="#CCE0E5"/>
<path d="M13.75 19.6016H6.875C6.16309 19.6016 5.58594 20.2837 5.58594 21.125V27.625C5.58594 28.4663 6.16309 29.1484 6.875 29.1484H13.75C14.4619 29.1484 15.0391 28.4663 15.0391 27.625V21.125C15.0391 20.2837 14.4619 19.6016 13.75 19.6016Z" fill="#E0EAEF"/>
<path d="M6.875 43.9766C6.16344 43.9766 5.58594 44.6591 5.58594 45.5V52H8.16406V45.5C8.16406 44.6591 7.58656 43.9766 6.875 43.9766Z" fill="#E0EAEF"/>
<path d="M26.125 43.9766C25.4134 43.9766 24.8359 44.6591 24.8359 45.5V52H27.4141V45.5C27.4141 44.6591 26.8366 43.9766 26.125 43.9766Z" fill="#CCE0E5"/>
<path d="M21.9141 40.625V52H11.0859V40.625C11.0859 37.0967 13.5145 34.2266 16.5 34.2266C19.4855 34.2266 21.9141 37.0967 21.9141 40.625Z" fill="#FFDD54"/>
<path d="M21.9141 40.625V52H16.5V34.2266C19.4855 34.2266 21.9141 37.0967 21.9141 40.625Z" fill="#FFB454"/>
</svg>
